HIERARCHY
ROOT Hips
{
	OFFSET 50.130001 -14.582015 94.249802
	CHANNELS 6 Xposition Yposition Zposition Xrotation Yrotation Zrotation
	JOINT spine
	{
		OFFSET 0.000000 -0.448574 7.800583
		CHANNELS 3 Xrotation Yrotation Zrotation
		JOINT spine1
		{
			OFFSET 0.000000 -0.000002 10.136398
			CHANNELS 3 Xrotation Yrotation Zrotation
			JOINT spine2
			{
				OFFSET 0.000000 -0.000002 9.712509
				CHANNELS 3 Xrotation Yrotation Zrotation
				JOINT Neck
				{
					OFFSET 0.000000 -1.188874 24.936096
					CHANNELS 3 Xrotation Yrotation Zrotation
					JOINT Head
					{
						OFFSET 0.000000 0.000000 7.533844
						CHANNELS 3 Xrotation Yrotation Zrotation
						End Site
						{
							OFFSET 0.000000 6.014017 18.236099
						}
					}
				}
				JOINT RightShoulder
				{
					OFFSET -4.089649 0.569455 10.488800
					CHANNELS 3 Xrotation Yrotation Zrotation
					JOINT RightArm
					{
						OFFSET 0.000000 -0.000002 13.757004
						CHANNELS 3 Xrotation Yrotation Zrotation
						JOINT RightArmRoll
						{
							OFFSET 0.000000 -0.000001 6.944778
							CHANNELS 3 Xrotation Yrotation Zrotation
							JOINT RightForeArm
							{
								OFFSET 0.000000 -0.000004 20.227692
								CHANNELS 3 Xrotation Yrotation Zrotation
								JOINT RightForeArmRoll
								{
									OFFSET 0.000000 -0.000001 7.793121
									CHANNELS 3 Xrotation Yrotation Zrotation
									JOINT RightHand
									{
										OFFSET 0.000000 -0.000003 15.639099
										CHANNELS 3 Xrotation Yrotation Zrotation
										End Site
										{
											OFFSET 0.000000 0.000000 0.100006
										}
									}
								}
							}
						}
					}
				}
				JOINT LeftShoulder
				{
					OFFSET 4.089649 0.569455 10.488800
					CHANNELS 3 Xrotation Yrotation Zrotation
					JOINT LeftArm
					{
						OFFSET 0.000000 -0.000002 13.757004
						CHANNELS 3 Xrotation Yrotation Zrotation
						JOINT LeftArmRoll
						{
							OFFSET 0.000000 -0.000001 6.944778
							CHANNELS 3 Xrotation Yrotation Zrotation
							JOINT LeftForeArm
							{
								OFFSET 0.000000 -0.000004 20.227692
								CHANNELS 3 Xrotation Yrotation Zrotation
								JOINT LeftForeArmRoll
								{
									OFFSET 0.000000 -0.000001 7.793121
									CHANNELS 3 Xrotation Yrotation Zrotation
									JOINT LeftHand
									{
										OFFSET 0.000000 -0.000003 15.639099
										CHANNELS 3 Xrotation Yrotation Zrotation
										End Site
										{
											OFFSET 0.000000 0.000000 0.100006
										}
									}
								}
							}
						}
					}
				}
			}
		}
	}
	JOINT RightUpLeg
	{
		OFFSET -6.914150 1.063581 -1.267883
		CHANNELS 3 Xrotation Yrotation Zrotation
		JOINT RightUpLegRoll
		{
			OFFSET 0.000000 -0.000003 18.337799
			CHANNELS 3 Xrotation Yrotation Zrotation
			JOINT RightLeg
			{
				OFFSET 0.000000 0.000004 -22.708496
				CHANNELS 3 Xrotation Yrotation Zrotation
				JOINT RightLegRoll
				{
					OFFSET 0.000000 -0.000004 22.782799
					CHANNELS 3 Xrotation Yrotation Zrotation
					JOINT RightFoot
					{
						OFFSET 0.000000 -0.000003 18.962898
						CHANNELS 3 Xrotation Yrotation Zrotation
						JOINT RightToeBase
						{
							OFFSET 0.000000 -0.000003 15.852005
							CHANNELS 3 Xrotation Yrotation Zrotation
							End Site
							{
								OFFSET 0.006718 0.884892 7.677017
							}
						}
					}
				}
			}
		}
	}
	JOINT LeftUpLeg
	{
		OFFSET 6.914150 1.063581 -1.267883
		CHANNELS 3 Xrotation Yrotation Zrotation
		JOINT LeftUpLegRoll
		{
			OFFSET 0.000000 -0.000003 18.337898
			CHANNELS 3 Xrotation Yrotation Zrotation
			JOINT LeftLeg
			{
				OFFSET 0.000000 -0.000004 22.708397
				CHANNELS 3 Xrotation Yrotation Zrotation
				JOINT LeftLegRoll
				{
					OFFSET 0.000000 -0.000004 22.993393
					CHANNELS 3 Xrotation Yrotation Zrotation
					JOINT LeftFoot
					{
						OFFSET 0.000000 -0.000003 18.752197
						CHANNELS 3 Xrotation Yrotation Zrotation
						JOINT LeftToeBase
						{
							OFFSET 0.000000 -0.000003 15.852005
							CHANNELS 3 Xrotation Yrotation Zrotation
							End Site
							{
								OFFSET -0.030113 0.884892 7.677017
							}
						}
					}
				}
			}
		}
	}
}
MOTION
Frames: 11
Frame Time: 0.041667
51.837006 -11.741114 94.112709 -5.997125 1.237781 -0.382955 -0.536589 -0.079036 0.274520 2.914161 -0.157107 0.549186 4.559205 -0.150275 0.551137 17.215961 -0.414582 -2.885600 -17.141560 -7.699612 -3.219411 -42.183064 -84.111396 -46.321660 75.720748 -72.922481 94.605729 -0.000002 0.000000 0.000002 15.508887 -8.380199 -0.080178 0.000003 -0.000012 -2.999988 -5.000211 -7.998922 0.000143 9.278862 66.954405 -9.394490 -24.283315 104.751230 14.128314 0.000003 -0.000009 -0.000001 15.595465 6.902146 0.267682 0.000002 -0.000004 3.000001 -5.000213 7.999110 -0.000098 -1.097338 -178.630252 -0.505745 -179.999991 0.000005 -0.982996 169.532043 -1.261659 -0.731083 -0.000000 -0.000000 0.102281 68.695058 6.076372 4.246158 25.456957 -7.355614 0.000001 -0.081322 179.967002 6.456909 -0.000004 -0.000004 -1.501710 -14.679658 4.657504 0.830318 -0.000005 0.000000 -0.352946 74.647424 -7.820748 1.130678 25.456955 7.355614 -0.000001 
51.839203 -11.753115 94.116699 -5.991781 1.241085 -0.369576 -0.535616 -0.078998 0.275421 2.916161 -0.156136 0.551211 4.561206 -0.149295 0.553147 17.181018 -0.439118 -2.893221 -17.135865 -7.684309 -3.225663 -42.181425 -84.111020 -46.320007 75.510460 -73.044194 94.602689 -0.000001 0.000000 0.000003 15.472675 -8.282934 -0.099821 -0.000001 -0.000013 -2.999991 -5.000213 -7.998922 0.000143 9.252465 66.938285 -9.367802 -24.131842 104.738806 13.883549 0.000003 -0.000010 -0.000002 15.519119 6.849462 0.276736 0.000002 -0.000004 3.000000 -5.000213 7.999109 -0.000098 -1.088992 -178.616263 -0.470883 -179.999991 0.000005 -0.984007 169.546264 -1.305967 -0.730941 -0.000000 0.000000 0.102276 68.702387 6.087185 4.218292 25.456957 -7.355616 0.000001 -0.084781 179.961005 6.454658 -0.000004 -0.000004 -1.501511 -14.674416 4.656475 0.830317 -0.000005 0.000001 -0.352957 74.641168 -7.819729 1.125282 25.456957 7.355614 -0.000001 
51.845108 -11.752512 94.116501 -5.986149 1.244389 -0.356429 -0.534652 -0.078945 0.276350 2.918101 -0.155093 0.553313 4.563144 -0.148242 0.555235 17.145479 -0.465297 -2.900583 -17.130210 -7.667118 -3.231539 -42.180851 -84.110802 -46.319450 75.302262 -73.166393 94.601583 -0.000001 0.000001 0.000001 15.437653 -8.186004 -0.119254 0.000000 -0.000012 -2.999990 -5.000215 -7.998922 0.000141 9.223548 66.921012 -9.338506 -23.978716 104.728499 13.637684 0.000002 -0.000011 -0.000002 15.442600 6.796611 0.285622 0.000003 -0.000004 3.000001 -5.000212 7.999109 -0.000098 -1.080786 -178.601251 -0.434692 -179.999991 0.000005 -0.985004 169.560853 -1.351263 -0.730934 -0.000000 -0.000000 0.102275 68.709722 6.098383 4.189502 25.456957 -7.355615 0.000001 -0.088965 179.956005 6.452469 -0.000005 -0.000004 -1.501330 -14.669178 4.655492 0.830309 -0.000005 -0.000000 -0.352973 74.634461 -7.818696 1.119554 25.456953 7.355613 -0.000001 
51.842300 -11.764116 94.109703 -5.980315 1.247705 -0.343443 -0.533700 -0.078882 0.277297 2.919991 -0.154000 0.555470 4.565046 -0.147139 0.557376 17.109552 -0.492620 -2.907772 -17.124490 -7.648606 -3.237142 -42.181575 -84.110733 -46.320202 75.095560 -73.289050 94.601842 -0.000001 -0.000000 -0.000000 15.403303 -8.089306 -0.138520 -0.000001 -0.000013 -2.999989 -5.000211 -7.998922 0.000142 9.192811 66.902830 -9.307331 -23.825047 104.719333 13.391661 0.000003 -0.000010 -0.000003 15.365904 6.743640 0.294357 0.000001 -0.000004 3.000001 -5.000215 7.999109 -0.000098 -1.072690 -178.585241 -0.397574 -179.999991 0.000005 -0.985004 169.575866 -1.398540 -0.731259 -0.000000 0.000000 0.102277 68.717242 6.109802 4.160038 25.456959 -7.355616 0.000001 -0.093660 179.949994 6.450332 -0.000005 -0.000004 -1.501140 -14.664140 4.654534 0.830309 -0.000005 0.000000 -0.352993 74.627412 -7.817665 1.113802 25.456950 7.355614 -0.000001 
51.835205 -11.755409 94.113899 -5.974358 1.251030 -0.330548 -0.532753 -0.078812 0.278255 2.921870 -0.152878 0.557658 4.566915 -0.146006 0.559549 17.073426 -0.520595 -2.914891 -17.118850 -7.629338 -3.242605 -42.182777 -84.110754 -46.321438 74.889677 -73.411788 94.602758 -0.000001 -0.000000 0.000001 15.369534 -7.992733 -0.157639 0.000001 -0.000013 -2.999991 -5.000212 -7.998922 0.000143 9.161102 66.884197 -9.275150 -23.668853 104.712175 13.143292 0.000003 -0.000009 -0.000003 15.289139 6.690603 0.302943 0.000001 -0.000004 3.000001 -5.000215 7.999109 -0.000098 -1.064633 -178.569244 -0.359912 -179.999991 0.000005 -0.986001 169.591043 -1.445821 -0.731567 -0.000000 0.000000 0.102280 68.724687 6.121349 4.130200 25.456959 -7.355615 0.000001 -0.098649 179.943997 6.448227 -0.000005 -0.000004 -1.500949 -14.659102 4.653606 0.830310 -0.000005 0.000001 -0.353015 74.620138 -7.816612 1.107739 25.456957 7.355614 -0.000001 
51.832905 -11.765017 94.110901 -5.968373 1.254346 -0.317679 -0.531810 -0.078740 0.279216 2.923740 -0.151749 0.559854 4.568784 -0.144866 0.561728 17.037205 -0.548725 -2.922021 -17.113104 -7.609889 -3.248021 -42.184017 -84.110774 -46.322725 74.684061 -73.534486 94.603932 -0.000001 -0.000000 0.000002 15.335824 -7.896183 -0.176642 0.000002 -0.000012 -2.999990 -5.000210 -7.998922 0.000143 9.129143 66.865373 -9.242714 -23.512646 104.705154 12.894984 0.000003 -0.000010 -0.000003 15.212401 6.637530 0.311388 0.000002 -0.000004 3.000000 -5.000212 7.999109 -0.000098 -1.056611 -178.553248 -0.322112 -179.999991 0.000005 -0.986998 169.606329 -1.493108 -0.731833 -0.000000 0.000000 0.102284 68.732173 6.132963 4.100273 25.456962 -7.355615 0.000001 -0.103714 179.938998 6.446120 -0.000005 -0.000004 -1.500769 -14.654065 4.652666 0.830306 -0.000005 -0.000000 -0.353038 74.612946 -7.815514 1.101688 25.456952 7.355614 -0.000001 
51.836201 -11.766214 94.111000 -5.962452 1.257671 -0.304763 -0.530865 -0.078672 0.280171 2.925620 -0.150635 0.562035 4.570664 -0.143741 0.563893 17.001084 -0.576518 -2.929243 -17.107474 -7.590805 -3.253530 -42.185335 -84.110788 -46.324064 74.478049 -73.657088 94.604766 -0.000000 -0.000000 -0.000001 15.302074 -7.799536 -0.195527 0.000001 -0.000014 -2.999990 -5.000212 -7.998922 0.000145 9.097834 66.846918 -9.210949 -23.357524 104.697272 12.647684 0.000002 -0.000009 -0.000003 15.135701 6.584485 0.319695 -0.000001 -0.000004 3.000001 -5.000214 7.999109 -0.000098 -1.048546 -178.537252 -0.284577 -179.999991 0.000005 -0.987996 169.621410 -1.540385 -0.732077 -0.000000 -0.000000 0.102287 68.739625 6.144460 4.070625 25.456957 -7.355614 0.000001 -0.108629 179.933001 6.444008 -0.000004 -0.000004 -1.500580 -14.648925 4.651730 0.830298 -0.000004 0.000001 -0.353060 74.605774 -7.814465 1.095835 25.456953 7.355613 -0.000001 
51.828106 -11.773911 94.120499 -5.956669 1.260997 -0.291734 -0.529908 -0.078611 0.281113 2.927520 -0.149556 0.564176 4.572564 -0.142652 0.566019 16.965365 -0.603476 -2.936641 -17.101779 -7.572679 -3.259230 -42.186049 -84.110727 -46.324812 74.270883 -73.779314 94.604656 0.000000 -0.000000 -0.000000 15.267771 -7.702693 -0.214341 0.000001 -0.000014 -2.999992 -5.000211 -7.998922 0.000145 9.067757 66.828873 -9.180465 -23.201403 104.689417 12.399064 0.000003 -0.000009 -0.000002 15.059235 6.531500 0.327862 0.000002 -0.000004 3.000000 -5.000213 7.999110 -0.000098 -1.040409 -178.522253 -0.247692 -179.999991 0.000005 -0.987996 169.636272 -1.586697 -0.732139 -0.000000 -0.000000 0.102288 68.747145 6.155781 4.041335 25.456957 -7.355615 0.000001 -0.113179 179.927004 6.441866 -0.000005 -0.000004 -1.500400 -14.643890 4.650760 0.830302 -0.000006 0.000000 -0.353079 74.598828 -7.813404 1.089995 25.456950 7.355614 -0.000001 
51.844608 -11.777817 94.133102 -5.951124 1.264322 -0.278521 -0.528940 -0.078562 0.282034 2.929480 -0.148534 0.566255 4.574523 -0.141621 0.568082 16.929952 -0.629106 -2.944288 -17.096054 -7.556062 -3.265231 -42.184894 -84.110426 -46.323658 74.061988 -73.901035 94.603010 -0.000001 0.000000 0.000000 15.232813 -7.605539 -0.233086 0.000001 -0.000013 -2.999990 -5.000212 -7.998922 0.000144 9.039857 66.811920 -9.152236 -23.046798 104.679677 12.151615 0.000003 -0.000010 -0.000002 14.983000 6.478633 0.335905 0.000004 -0.000005 3.000001 -5.000211 7.999109 -0.000098 -1.032161 -178.507240 -0.211879 -179.999991 0.000005 -0.989006 169.650752 -1.632018 -0.731993 -0.000000 0.000000 0.102285 68.754481 6.166831 4.012807 25.456957 -7.355614 0.000001 -0.117145 179.922004 6.439660 -0.000005 -0.000004 -1.500210 -14.638649 4.649768 0.830296 -0.000005 0.000000 -0.353094 74.592250 -7.812393 1.084472 25.456953 7.355613 -0.000001 
51.832909 -11.779417 94.123100 -5.945890 1.267646 -0.265055 -0.527959 -0.078531 0.282925 2.931499 -0.147591 0.568248 4.576544 -0.140668 0.570061 16.895228 -0.652910 -2.952275 -17.090416 -7.541524 -3.271667 -42.181968 -84.109900 -46.320704 73.850621 -74.021868 94.599302 -0.000001 -0.000000 0.000001 15.196686 -7.507957 -0.251793 0.000001 -0.000014 -2.999990 -5.000212 -7.998921 0.000142 9.014853 66.796320 -9.126998 -22.893093 104.668011 11.904520 0.000003 -0.000010 -0.000003 14.907006 6.425921 0.343833 0.000002 -0.000004 3.000001 -5.000210 7.999110 -0.000098 -1.023755 -178.493252 -0.177523 -179.999991 0.000005 -0.990004 169.664631 -1.675378 -0.731484 -0.000000 -0.000000 0.102279 68.761830 6.177489 3.985199 25.456959 -7.355615 0.000001 -0.120309 179.915994 6.437398 -0.000005 -0.000004 -1.500010 -14.633411 4.648717 0.830301 -0.000004 -0.000000 -0.353102 74.586137 -7.811412 1.079182 25.456952 7.355613 -0.000001 
51.828709 -11.786615 94.127899 -5.941067 1.270959 -0.251270 -0.526962 -0.078521 0.283780 2.933599 -0.146748 0.570131 4.578643 -0.139816 0.571932 16.861398 -0.674395 -2.960675 -17.084880 -7.529624 -3.278655 -42.176500 -84.109053 -46.315205 73.636010 -74.141847 94.592745 -0.000001 0.000000 0.000001 15.159195 -7.409852 -0.270473 0.000002 -0.000013 -2.999989 -5.000212 -7.998922 0.000142 8.993460 66.782414 -9.105504 -22.741234 104.653449 11.658412 0.000003 -0.000009 -0.000002 14.831450 6.373410 0.351643 0.000003 -0.000004 3.000000 -5.000212 7.999109 -0.000098 -1.015151 -178.480247 -0.145029 -179.999991 0.000005 -0.990004 169.677813 -1.716775 -0.731628 -0.000000 0.000000 0.102267 68.769138 6.187603 3.958994 25.456959 -7.355616 0.000001 -0.122456 179.909997 6.435022 -0.000004 -0.000004 -1.499810 -14.627967 4.647612 0.830300 -0.000004 -0.000000 -0.353104 74.580700 -7.810433 1.074237 25.456952 7.355614 -0.000001 
